<mxfile host="app.diagrams.net" agent="Mozilla/5.0 (Windows NT 10.0; Win64; x64) AppleWebKit/537.36 (KHTML, like Gecko) Chrome/134.0.0.0 Safari/537.36 Edg/134.0.0.0" version="26.1.1">
  <diagram name="PÃ¡gina-1" id="F5levtgSstWxK1k0BZ7O">
    <mxGraphModel dx="872" dy="477" grid="1" gridSize="10" guides="1" tooltips="1" connect="1" arrows="1" fold="1" page="1" pageScale="1" pageWidth="827" pageHeight="1169" math="0" shadow="0">
      <root>
        <mxCell id="0" />
        <mxCell id="1" parent="0" />
        <mxCell id="mld1d-4-I1-0uhW4n_vL-1" value="" style="rounded=0;whiteSpace=wrap;html=1;" vertex="1" parent="1">
          <mxGeometry x="340" y="90" width="190" height="160" as="geometry" />
        </mxCell>
        <mxCell id="mld1d-4-I1-0uhW4n_vL-2" value="&amp;lt;&amp;lt; interface&amp;gt;&amp;gt;" style="text;strokeColor=none;fillColor=none;align=left;verticalAlign=middle;spacingLeft=4;spacingRight=4;overflow=hidden;points=[[0,0.5],[1,0.5]];portConstraint=eastwest;rotatable=0;whiteSpace=wrap;html=1;" vertex="1" parent="1">
          <mxGeometry x="385" y="100" width="100" height="30" as="geometry" />
        </mxCell>
        <mxCell id="mld1d-4-I1-0uhW4n_vL-3" value="Navegador na Internet" style="text;strokeColor=none;fillColor=none;align=left;verticalAlign=middle;spacingLeft=4;spacingRight=4;overflow=hidden;points=[[0,0.5],[1,0.5]];portConstraint=eastwest;rotatable=0;whiteSpace=wrap;html=1;" vertex="1" parent="1">
          <mxGeometry x="375" y="120" width="135" height="30" as="geometry" />
        </mxCell>
        <mxCell id="mld1d-4-I1-0uhW4n_vL-5" value="+ exibirPagina() : void" style="text;strokeColor=none;fillColor=none;align=left;verticalAlign=middle;spacingLeft=4;spacingRight=4;overflow=hidden;points=[[0,0.5],[1,0.5]];portConstraint=eastwest;rotatable=0;whiteSpace=wrap;html=1;" vertex="1" parent="1">
          <mxGeometry x="357.5" y="170" width="142.5" height="30" as="geometry" />
        </mxCell>
        <mxCell id="mld1d-4-I1-0uhW4n_vL-6" value="" style="endArrow=none;html=1;rounded=0;exitX=0;exitY=0.5;exitDx=0;exitDy=0;entryX=1;entryY=0.5;entryDx=0;entryDy=0;" edge="1" parent="1">
          <mxGeometry width="50" height="50" relative="1" as="geometry">
            <mxPoint x="340" y="150" as="sourcePoint" />
            <mxPoint x="530" y="150" as="targetPoint" />
          </mxGeometry>
        </mxCell>
        <mxCell id="mld1d-4-I1-0uhW4n_vL-7" value="" style="endArrow=none;html=1;rounded=0;exitX=0;exitY=0.5;exitDx=0;exitDy=0;entryX=1;entryY=0.5;entryDx=0;entryDy=0;" edge="1" parent="1">
          <mxGeometry width="50" height="50" relative="1" as="geometry">
            <mxPoint x="340" y="165" as="sourcePoint" />
            <mxPoint x="530" y="165" as="targetPoint" />
          </mxGeometry>
        </mxCell>
        <mxCell id="mld1d-4-I1-0uhW4n_vL-8" value="+ adicionarNovaAba() : void" style="text;strokeColor=none;fillColor=none;align=left;verticalAlign=middle;spacingLeft=4;spacingRight=4;overflow=hidden;points=[[0,0.5],[1,0.5]];portConstraint=eastwest;rotatable=0;whiteSpace=wrap;html=1;" vertex="1" parent="1">
          <mxGeometry x="357.5" y="190" width="162.5" height="30" as="geometry" />
        </mxCell>
        <mxCell id="mld1d-4-I1-0uhW4n_vL-9" value="+ atualizarPagina() : void" style="text;strokeColor=none;fillColor=none;align=left;verticalAlign=middle;spacingLeft=4;spacingRight=4;overflow=hidden;points=[[0,0.5],[1,0.5]];portConstraint=eastwest;rotatable=0;whiteSpace=wrap;html=1;" vertex="1" parent="1">
          <mxGeometry x="357.5" y="210" width="155" height="30" as="geometry" />
        </mxCell>
        <mxCell id="mld1d-4-I1-0uhW4n_vL-26" value="" style="rounded=0;whiteSpace=wrap;html=1;" vertex="1" parent="1">
          <mxGeometry x="50" y="90" width="190" height="160" as="geometry" />
        </mxCell>
        <mxCell id="mld1d-4-I1-0uhW4n_vL-27" value="&amp;lt;&amp;lt; interface&amp;gt;&amp;gt;" style="text;strokeColor=none;fillColor=none;align=left;verticalAlign=middle;spacingLeft=4;spacingRight=4;overflow=hidden;points=[[0,0.5],[1,0.5]];portConstraint=eastwest;rotatable=0;whiteSpace=wrap;html=1;" vertex="1" parent="1">
          <mxGeometry x="95" y="100" width="100" height="30" as="geometry" />
        </mxCell>
        <mxCell id="mld1d-4-I1-0uhW4n_vL-28" value="Aparelho Telefonico" style="text;strokeColor=none;fillColor=none;align=left;verticalAlign=middle;spacingLeft=4;spacingRight=4;overflow=hidden;points=[[0,0.5],[1,0.5]];portConstraint=eastwest;rotatable=0;whiteSpace=wrap;html=1;" vertex="1" parent="1">
          <mxGeometry x="85" y="120" width="120" height="30" as="geometry" />
        </mxCell>
        <mxCell id="mld1d-4-I1-0uhW4n_vL-29" value="+ ligar() : void" style="text;strokeColor=none;fillColor=none;align=left;verticalAlign=middle;spacingLeft=4;spacingRight=4;overflow=hidden;points=[[0,0.5],[1,0.5]];portConstraint=eastwest;rotatable=0;whiteSpace=wrap;html=1;" vertex="1" parent="1">
          <mxGeometry x="67.5" y="170" width="120" height="30" as="geometry" />
        </mxCell>
        <mxCell id="mld1d-4-I1-0uhW4n_vL-30" value="" style="endArrow=none;html=1;rounded=0;exitX=0;exitY=0.5;exitDx=0;exitDy=0;entryX=1;entryY=0.5;entryDx=0;entryDy=0;" edge="1" parent="1">
          <mxGeometry width="50" height="50" relative="1" as="geometry">
            <mxPoint x="50" y="150" as="sourcePoint" />
            <mxPoint x="240" y="150" as="targetPoint" />
          </mxGeometry>
        </mxCell>
        <mxCell id="mld1d-4-I1-0uhW4n_vL-31" value="" style="endArrow=none;html=1;rounded=0;exitX=0;exitY=0.5;exitDx=0;exitDy=0;entryX=1;entryY=0.5;entryDx=0;entryDy=0;" edge="1" parent="1">
          <mxGeometry width="50" height="50" relative="1" as="geometry">
            <mxPoint x="50" y="165" as="sourcePoint" />
            <mxPoint x="240" y="165" as="targetPoint" />
          </mxGeometry>
        </mxCell>
        <mxCell id="mld1d-4-I1-0uhW4n_vL-32" value="+ atender() : void" style="text;strokeColor=none;fillColor=none;align=left;verticalAlign=middle;spacingLeft=4;spacingRight=4;overflow=hidden;points=[[0,0.5],[1,0.5]];portConstraint=eastwest;rotatable=0;whiteSpace=wrap;html=1;" vertex="1" parent="1">
          <mxGeometry x="67.5" y="190" width="120" height="30" as="geometry" />
        </mxCell>
        <mxCell id="mld1d-4-I1-0uhW4n_vL-33" value="+ iniciarCorreioVoz() : void" style="text;strokeColor=none;fillColor=none;align=left;verticalAlign=middle;spacingLeft=4;spacingRight=4;overflow=hidden;points=[[0,0.5],[1,0.5]];portConstraint=eastwest;rotatable=0;whiteSpace=wrap;html=1;" vertex="1" parent="1">
          <mxGeometry x="67.5" y="210" width="155" height="30" as="geometry" />
        </mxCell>
        <mxCell id="mld1d-4-I1-0uhW4n_vL-34" value="" style="rounded=0;whiteSpace=wrap;html=1;" vertex="1" parent="1">
          <mxGeometry x="620" y="90" width="190" height="160" as="geometry" />
        </mxCell>
        <mxCell id="mld1d-4-I1-0uhW4n_vL-35" value="&amp;lt;&amp;lt; interface&amp;gt;&amp;gt;" style="text;strokeColor=none;fillColor=none;align=left;verticalAlign=middle;spacingLeft=4;spacingRight=4;overflow=hidden;points=[[0,0.5],[1,0.5]];portConstraint=eastwest;rotatable=0;whiteSpace=wrap;html=1;" vertex="1" parent="1">
          <mxGeometry x="665" y="100" width="100" height="30" as="geometry" />
        </mxCell>
        <mxCell id="mld1d-4-I1-0uhW4n_vL-36" value="Reprodutor Musical" style="text;strokeColor=none;fillColor=none;align=left;verticalAlign=middle;spacingLeft=4;spacingRight=4;overflow=hidden;points=[[0,0.5],[1,0.5]];portConstraint=eastwest;rotatable=0;whiteSpace=wrap;html=1;" vertex="1" parent="1">
          <mxGeometry x="655" y="120" width="120" height="30" as="geometry" />
        </mxCell>
        <mxCell id="mld1d-4-I1-0uhW4n_vL-37" value="+ tocar() : void" style="text;strokeColor=none;fillColor=none;align=left;verticalAlign=middle;spacingLeft=4;spacingRight=4;overflow=hidden;points=[[0,0.5],[1,0.5]];portConstraint=eastwest;rotatable=0;whiteSpace=wrap;html=1;" vertex="1" parent="1">
          <mxGeometry x="637.5" y="170" width="120" height="30" as="geometry" />
        </mxCell>
        <mxCell id="mld1d-4-I1-0uhW4n_vL-38" value="" style="endArrow=none;html=1;rounded=0;exitX=0;exitY=0.5;exitDx=0;exitDy=0;entryX=1;entryY=0.5;entryDx=0;entryDy=0;" edge="1" parent="1">
          <mxGeometry width="50" height="50" relative="1" as="geometry">
            <mxPoint x="620" y="150" as="sourcePoint" />
            <mxPoint x="810" y="150" as="targetPoint" />
          </mxGeometry>
        </mxCell>
        <mxCell id="mld1d-4-I1-0uhW4n_vL-39" value="" style="endArrow=none;html=1;rounded=0;exitX=0;exitY=0.5;exitDx=0;exitDy=0;entryX=1;entryY=0.5;entryDx=0;entryDy=0;" edge="1" parent="1">
          <mxGeometry width="50" height="50" relative="1" as="geometry">
            <mxPoint x="620" y="165" as="sourcePoint" />
            <mxPoint x="810" y="165" as="targetPoint" />
          </mxGeometry>
        </mxCell>
        <mxCell id="mld1d-4-I1-0uhW4n_vL-40" value="+ pausar() : void" style="text;strokeColor=none;fillColor=none;align=left;verticalAlign=middle;spacingLeft=4;spacingRight=4;overflow=hidden;points=[[0,0.5],[1,0.5]];portConstraint=eastwest;rotatable=0;whiteSpace=wrap;html=1;" vertex="1" parent="1">
          <mxGeometry x="637.5" y="190" width="120" height="30" as="geometry" />
        </mxCell>
        <mxCell id="mld1d-4-I1-0uhW4n_vL-41" value="+ selecionarMusica() : void" style="text;strokeColor=none;fillColor=none;align=left;verticalAlign=middle;spacingLeft=4;spacingRight=4;overflow=hidden;points=[[0,0.5],[1,0.5]];portConstraint=eastwest;rotatable=0;whiteSpace=wrap;html=1;" vertex="1" parent="1">
          <mxGeometry x="637.5" y="210" width="155" height="30" as="geometry" />
        </mxCell>
        <mxCell id="mld1d-4-I1-0uhW4n_vL-42" value="" style="rounded=0;whiteSpace=wrap;html=1;" vertex="1" parent="1">
          <mxGeometry x="375" y="360" width="122.5" height="120" as="geometry" />
        </mxCell>
        <mxCell id="mld1d-4-I1-0uhW4n_vL-44" value="iPhone" style="text;strokeColor=none;fillColor=none;align=left;verticalAlign=middle;spacingLeft=4;spacingRight=4;overflow=hidden;points=[[0,0.5],[1,0.5]];portConstraint=eastwest;rotatable=0;whiteSpace=wrap;html=1;" vertex="1" parent="1">
          <mxGeometry x="414" y="380" width="120" height="30" as="geometry" />
        </mxCell>
        <mxCell id="mld1d-4-I1-0uhW4n_vL-46" value="" style="endArrow=none;html=1;rounded=0;exitX=0;exitY=0.5;exitDx=0;exitDy=0;" edge="1" parent="1">
          <mxGeometry width="50" height="50" relative="1" as="geometry">
            <mxPoint x="373.75" y="419.5" as="sourcePoint" />
            <mxPoint x="496.25" y="419.5" as="targetPoint" />
          </mxGeometry>
        </mxCell>
        <mxCell id="mld1d-4-I1-0uhW4n_vL-47" value="" style="endArrow=none;html=1;rounded=0;exitX=0;exitY=0.5;exitDx=0;exitDy=0;" edge="1" parent="1">
          <mxGeometry width="50" height="50" relative="1" as="geometry">
            <mxPoint x="374.5" y="435" as="sourcePoint" />
            <mxPoint x="497" y="435" as="targetPoint" />
          </mxGeometry>
        </mxCell>
        <mxCell id="mld1d-4-I1-0uhW4n_vL-50" value="" style="endArrow=classic;html=1;rounded=0;entryX=0.5;entryY=1;entryDx=0;entryDy=0;" edge="1" parent="1" target="mld1d-4-I1-0uhW4n_vL-26">
          <mxGeometry width="50" height="50" relative="1" as="geometry">
            <mxPoint x="390" y="360" as="sourcePoint" />
            <mxPoint x="440" y="310" as="targetPoint" />
          </mxGeometry>
        </mxCell>
        <mxCell id="mld1d-4-I1-0uhW4n_vL-51" value="" style="endArrow=classic;html=1;rounded=0;entryX=0.5;entryY=1;entryDx=0;entryDy=0;exitX=0.5;exitY=0;exitDx=0;exitDy=0;" edge="1" parent="1" source="mld1d-4-I1-0uhW4n_vL-42" target="mld1d-4-I1-0uhW4n_vL-1">
          <mxGeometry width="50" height="50" relative="1" as="geometry">
            <mxPoint x="390" y="360" as="sourcePoint" />
            <mxPoint x="440" y="310" as="targetPoint" />
          </mxGeometry>
        </mxCell>
        <mxCell id="mld1d-4-I1-0uhW4n_vL-52" value="" style="endArrow=classic;html=1;rounded=0;exitX=0.857;exitY=0.008;exitDx=0;exitDy=0;exitPerimeter=0;entryX=0.5;entryY=1;entryDx=0;entryDy=0;" edge="1" parent="1" source="mld1d-4-I1-0uhW4n_vL-42" target="mld1d-4-I1-0uhW4n_vL-34">
          <mxGeometry width="50" height="50" relative="1" as="geometry">
            <mxPoint x="390" y="360" as="sourcePoint" />
            <mxPoint x="440" y="310" as="targetPoint" />
          </mxGeometry>
        </mxCell>
      </root>
    </mxGraphModel>
  </diagram>
</mxfile>
